<?xml version="1.0" encoding="UTF-8" standalone="no"?>
<!DOCTYPE svg PUBLIC "-//W3C//DTD SVG 1.1//EN" "http://www.w3.org/Graphics/SVG/1.1/DTD/svg11.dtd">
<svg width="100%" height="100%" viewBox="0 0 83 49" version="1.1" xmlns="http://www.w3.org/2000/svg" xmlns:xlink="http://www.w3.org/1999/xlink" xml:space="preserve" xmlns:serif="http://www.serif.com/" style="fill-rule:evenodd;clip-rule:evenodd;stroke-miterlimit:10;">
    <g transform="matrix(0,-1,-1,0,64.1298,55.3033)">
        <rect x="8.468" y="-15.94" width="44.832" height="61.769" style="fill:white;stroke:white;stroke-width:0.4px;"/>
    </g>
    <g transform="matrix(1,0,0,1,18.301,-20.4138)">
        <path d="M0,29.888L61.769,29.888" style="fill:none;fill-rule:nonzero;stroke:black;stroke-width:0.4px;"/>
    </g>
    <g transform="matrix(1,0,0,1,18.301,9.47452)">
        <path d="M0,14.944L61.769,14.944" style="fill:none;fill-rule:nonzero;stroke:black;stroke-width:0.4px;"/>
    </g>
    <g transform="matrix(1,0,0,1,18.301,39.3628)">
        <path d="M0,0L61.769,0" style="fill:none;fill-rule:nonzero;stroke:black;stroke-width:0.4px;"/>
    </g>
    <g transform="matrix(0,1,1,0,33.7433,-5.96777)">
        <path d="M15.442,14.944L45.331,14.944" style="fill:none;fill-rule:nonzero;stroke:black;stroke-width:0.4px;"/>
    </g>
    <g transform="matrix(0,1,1,0,34.7396,-6.96405)">
        <path d="M16.439,14.944L46.327,14.944" style="fill:none;fill-rule:nonzero;stroke:black;stroke-width:0.4px;"/>
    </g>
    <g transform="matrix(0,-1,-1,0,64.1298,55.3032)">
        <circle cx="30.885" cy="14.944" r="1.494" style="stroke:black;stroke-width:0.4px;"/>
    </g>
    <g transform="matrix(0,-1,-1,0,79.0739,40.3591)">
        <rect x="24.907" y="4.981" width="11.955" height="49.814" style="fill:white;stroke:black;stroke-width:0.4px;"/>
    </g>
    <g transform="matrix(1,0,0,1,-174.579,-123.629)">
        <text x="174.039px" y="135.595px" style="font-family:'LucidaGrande', 'Lucida Grande', sans-serif;font-weight:500;font-size:9.963px;">q<tspan x="179.224px 181.379px 186.593px " y="135.595px 135.595px 135.595px ">[0]</tspan></text>
        <text x="174.532px" y="150.538px" style="font-family:'LucidaGrande', 'Lucida Grande', sans-serif;font-weight:500;font-size:9.963px;">c<tspan x="178.774px 181.154px 186.593px " y="150.538px 150.538px 150.538px ">[0]</tspan></text>
        <text x="174.532px" y="165.48px" style="font-family:'LucidaGrande', 'Lucida Grande', sans-serif;font-weight:500;font-size:9.963px;">c<tspan x="178.774px 181.154px 186.593px " y="165.48px 165.48px 165.48px ">[1]</tspan></text>
    </g>
    <g transform="matrix(1,0,0,1,-174.579,-123.629)">
        <text x="215.662px" y="171.504px" style="font-family:'Monaco';font-size:6.974px;">=<tspan x="221.778px 227.894px " y="171.504px 171.504px ">=3</tspan></text>
    </g>
    <g transform="matrix(1,0,0,1,-174.579,-123.629)">
        <text x="208.692px" y="134.847px" style="font-family:'Monaco';font-size:6.974px;">U<tspan x="212.105px " y="134.847px ">(</tspan></text>
        <text x="216.581px" y="134.847px" style="font-family:'Monaco';font-size:6.974px;">,</text>
        <text x="221.057px" y="134.847px" style="font-family:'Monaco';font-size:6.974px;">,</text>
        <text x="225.533px" y="134.847px" style="font-family:'Monaco';font-size:6.974px;">)</text>
    </g>
    <g transform="matrix(0,-1,-1,0,49.1856,70.2474)">
        <ellipse cx="30.885" cy="0" rx="1.494" ry="1.494" style="stroke:black;stroke-width:0.4px;"/>
    </g>
    <g transform="matrix(1,0,0,1,18.301,12.4633)">
        <path d="M0,13.45L61.769,13.45" style="fill:none;fill-rule:nonzero;stroke:black;stroke-width:0.4px;"/>
    </g>
    <g transform="matrix(1,0,0,1,18.301,42.3517)">
        <path d="M0,-1.494L61.769,-1.494" style="fill:none;fill-rule:nonzero;stroke:black;stroke-width:0.4px;"/>
    </g>
</svg>
