<?xml version="1.0" encoding="UTF-8" standalone="no"?>
<!DOCTYPE svg PUBLIC "-//W3C//DTD SVG 1.1//EN" "http://www.w3.org/Graphics/SVG/1.1/DTD/svg11.dtd">
<svg width="100%" height="100%" viewBox="0 0 324 160" version="1.1" xmlns="http://www.w3.org/2000/svg" xmlns:xlink="http://www.w3.org/1999/xlink" xml:space="preserve" xmlns:serif="http://www.serif.com/" style="fill-rule:evenodd;clip-rule:evenodd;stroke-miterlimit:10;">
    <g transform="matrix(0,-1,-1,0,232.686,211.327)">
        <rect x="53.799" y="-61.271" width="149.442" height="257.039" style="fill:white;stroke:white;stroke-width:0.4px;"/>
    </g>
    <g transform="matrix(1,0,0,1,36.918,-118.939)">
        <path d="M0,134.497L257.039,134.497" style="fill:none;fill-rule:nonzero;stroke:black;stroke-width:0.4px;"/>
    </g>
    <g transform="matrix(1,0,0,1,36.918,-89.0507)">
        <path d="M0,119.553L257.039,119.553" style="fill:none;fill-rule:nonzero;stroke:black;stroke-width:0.4px;"/>
    </g>
    <g transform="matrix(1,0,0,1,36.918,-59.1624)">
        <path d="M0,104.609L257.039,104.609" style="fill:none;fill-rule:nonzero;stroke:black;stroke-width:0.4px;"/>
    </g>
    <g transform="matrix(1,0,0,1,36.918,-29.2741)">
        <path d="M0,89.665L257.039,89.665" style="fill:none;fill-rule:nonzero;stroke:black;stroke-width:0.4px;"/>
    </g>
    <g transform="matrix(1,0,0,1,36.918,0.614248)">
        <path d="M0,74.721L257.039,74.721" style="fill:none;fill-rule:nonzero;stroke:black;stroke-width:0.4px;"/>
    </g>
    <g transform="matrix(1,0,0,1,36.918,30.5025)">
        <path d="M0,59.777L245.084,59.777" style="fill:none;fill-rule:nonzero;stroke:black;stroke-width:0.4px;"/>
    </g>
    <g transform="matrix(1,0,0,1,36.918,31.4988)">
        <path d="M245.084,59.278L257.039,59.278" style="fill:none;fill-rule:nonzero;stroke:black;stroke-width:0.4px;"/>
    </g>
    <g transform="matrix(1,0,0,1,36.918,29.5063)">
        <path d="M245.084,60.275L257.039,60.275" style="fill:none;fill-rule:nonzero;stroke:black;stroke-width:0.4px;"/>
    </g>
    <g transform="matrix(1,0,0,1,36.918,60.3908)">
        <path d="M0,44.832L245.084,44.832" style="fill:none;fill-rule:nonzero;stroke:black;stroke-width:0.4px;"/>
    </g>
    <g transform="matrix(1,0,0,1,36.918,61.3871)">
        <path d="M245.084,44.334L257.039,44.334" style="fill:none;fill-rule:nonzero;stroke:black;stroke-width:0.4px;"/>
    </g>
    <g transform="matrix(1,0,0,1,36.918,59.3946)">
        <path d="M245.084,45.331L257.039,45.331" style="fill:none;fill-rule:nonzero;stroke:black;stroke-width:0.4px;"/>
    </g>
    <g transform="matrix(1,0,0,1,36.918,90.2792)">
        <path d="M0,29.888L245.084,29.888" style="fill:none;fill-rule:nonzero;stroke:black;stroke-width:0.4px;"/>
    </g>
    <g transform="matrix(1,0,0,1,36.918,91.2754)">
        <path d="M245.084,29.39L257.039,29.39" style="fill:none;fill-rule:nonzero;stroke:black;stroke-width:0.4px;"/>
    </g>
    <g transform="matrix(1,0,0,1,36.918,89.2829)">
        <path d="M245.084,30.386L257.039,30.386" style="fill:none;fill-rule:nonzero;stroke:black;stroke-width:0.4px;"/>
    </g>
    <g transform="matrix(1,0,0,1,36.918,120.167)">
        <path d="M0,14.944L245.084,14.944" style="fill:none;fill-rule:nonzero;stroke:black;stroke-width:0.4px;"/>
    </g>
    <g transform="matrix(1,0,0,1,36.918,121.164)">
        <path d="M245.084,14.446L257.039,14.446" style="fill:none;fill-rule:nonzero;stroke:black;stroke-width:0.4px;"/>
    </g>
    <g transform="matrix(1,0,0,1,36.918,119.171)">
        <path d="M245.084,15.442L257.039,15.442" style="fill:none;fill-rule:nonzero;stroke:black;stroke-width:0.4px;"/>
    </g>
    <g transform="matrix(1,0,0,1,36.918,150.056)">
        <path d="M0,0L245.084,0" style="fill:none;fill-rule:nonzero;stroke:black;stroke-width:0.4px;"/>
    </g>
    <g transform="matrix(1,0,0,1,36.918,151.052)">
        <path d="M245.084,-0.498L257.039,-0.498" style="fill:none;fill-rule:nonzero;stroke:black;stroke-width:0.4px;"/>
    </g>
    <g transform="matrix(1,0,0,1,36.918,149.059)">
        <path d="M245.084,0.498L257.039,0.498" style="fill:none;fill-rule:nonzero;stroke:black;stroke-width:0.4px;"/>
    </g>
    <g transform="matrix(0,-1,-1,0,168.427,42.4579)">
        <rect x="5.978" y="113.576" width="11.955" height="11.955" style="fill:white;stroke:black;stroke-width:0.4px;"/>
    </g>
    <g transform="matrix(0,-1,-1,0,108.65,102.234)">
        <rect x="5.978" y="53.799" width="11.955" height="11.955" style="fill:white;stroke:black;stroke-width:0.4px;"/>
    </g>
    <g transform="matrix(0,-1,-1,0,93.7058,117.179)">
        <rect x="5.978" y="38.855" width="11.955" height="11.955" style="fill:white;stroke:black;stroke-width:0.4px;"/>
    </g>
    <g transform="matrix(0,-1,-1,0,78.7617,132.123)">
        <rect x="5.978" y="23.911" width="11.955" height="11.955" style="fill:white;stroke:black;stroke-width:0.4px;"/>
    </g>
    <g transform="matrix(0,-1,-1,0,63.8175,147.067)">
        <rect x="5.978" y="8.966" width="11.955" height="11.955" style="fill:white;stroke:black;stroke-width:0.4px;"/>
    </g>
    <g transform="matrix(0,1,1,0,-24.353,17.0528)">
        <path d="M-1.494,97.137L73.226,97.137" style="fill:none;fill-rule:nonzero;stroke:black;stroke-width:0.4px;"/>
    </g>
    <g transform="matrix(0,-1,-1,0,207.281,51.4244)">
        <rect x="29.888" y="128.52" width="11.955" height="11.955" style="fill:white;stroke:black;stroke-width:0.4px;"/>
    </g>
    <g transform="matrix(0,-1,-1,0,192.337,66.3685)">
        <rect x="29.888" y="113.576" width="11.955" height="11.955" style="fill:white;stroke:black;stroke-width:0.4px;"/>
    </g>
    <g transform="matrix(0,-1,-1,0,132.561,126.145)">
        <rect x="29.888" y="53.799" width="11.955" height="11.955" style="fill:white;stroke:black;stroke-width:0.4px;"/>
    </g>
    <g transform="matrix(0,1,1,0,14.5018,8.08632)">
        <path d="M22.416,82.193L97.137,82.193" style="fill:none;fill-rule:nonzero;stroke:black;stroke-width:0.4px;"/>
    </g>
    <g transform="matrix(0,-1,-1,0,216.248,90.2792)">
        <rect x="53.799" y="113.576" width="11.955" height="11.955" style="fill:white;stroke:black;stroke-width:0.4px;"/>
    </g>
    <g transform="matrix(0,-1,-1,0,201.304,105.223)">
        <rect x="53.799" y="98.631" width="11.955" height="11.955" style="fill:white;stroke:black;stroke-width:0.4px;"/>
    </g>
    <g transform="matrix(0,-1,-1,0,141.527,165)">
        <rect x="53.799" y="38.855" width="11.955" height="11.955" style="fill:white;stroke:black;stroke-width:0.4px;"/>
    </g>
    <g transform="matrix(0,1,1,0,53.3566,-0.880177)">
        <path d="M46.327,67.249L121.048,67.249" style="fill:none;fill-rule:nonzero;stroke:black;stroke-width:0.4px;"/>
    </g>
    <g transform="matrix(0,-1,-1,0,225.214,129.134)">
        <rect x="77.71" y="98.631" width="11.955" height="11.955" style="fill:white;stroke:black;stroke-width:0.4px;"/>
    </g>
    <g transform="matrix(0,-1,-1,0,210.27,144.078)">
        <rect x="77.71" y="83.687" width="11.955" height="11.955" style="fill:white;stroke:black;stroke-width:0.4px;"/>
    </g>
    <g transform="matrix(0,-1,-1,0,150.494,203.855)">
        <rect x="77.71" y="23.911" width="11.955" height="11.955" style="fill:white;stroke:black;stroke-width:0.4px;"/>
    </g>
    <g transform="matrix(0,1,1,0,92.2114,-9.84667)">
        <path d="M70.238,52.305L144.958,52.305" style="fill:none;fill-rule:nonzero;stroke:black;stroke-width:0.4px;"/>
    </g>
    <g transform="matrix(1,0,0,1,-152.573,-127.909)">
        <text x="156.751px" y="145.96px" style="font-family:'LucidaGrande', 'Lucida Grande', sans-serif;font-weight:500;font-size:9.963px;">c<tspan x="161.403px 163.832px 169.564px 172.353px 178.202px 180.991px " y="145.96px 145.96px 145.96px 145.96px 145.96px 145.96px ">in[0]0</tspan></text>
        <text x="165.208px" y="160.903px" style="font-family:'LucidaGrande', 'Lucida Grande', sans-serif;font-weight:500;font-size:9.963px;">a<tspan x="170.085px 172.7px 178.375px 180.991px " y="160.903px 160.903px 160.903px 160.903px ">[0]0</tspan></text>
        <text x="165.208px" y="175.845px" style="font-family:'LucidaGrande', 'Lucida Grande', sans-serif;font-weight:500;font-size:9.963px;">a<tspan x="170.085px 172.7px 178.375px 180.991px " y="175.845px 175.845px 175.845px 175.845px ">[1]0</tspan></text>
        <text x="165.208px" y="190.788px" style="font-family:'LucidaGrande', 'Lucida Grande', sans-serif;font-weight:500;font-size:9.963px;">a<tspan x="170.085px 172.7px 178.375px 180.991px " y="190.788px 190.788px 190.788px 190.788px ">[2]0</tspan></text>
        <text x="165.208px" y="205.73px" style="font-family:'LucidaGrande', 'Lucida Grande', sans-serif;font-weight:500;font-size:9.963px;">a<tspan x="170.085px 172.7px 178.375px 180.991px " y="205.73px 205.73px 205.73px 205.73px ">[3]0</tspan></text>
        <text x="166.199px" y="220.673px" style="font-family:'LucidaGrande', 'Lucida Grande', sans-serif;font-weight:500;font-size:9.963px;">b<tspan x="171.405px 173.58px 178.815px 180.991px " y="220.673px 220.673px 220.673px 220.673px ">[0]0</tspan></text>
        <text x="166.199px" y="235.616px" style="font-family:'LucidaGrande', 'Lucida Grande', sans-serif;font-weight:500;font-size:9.963px;">b<tspan x="171.405px 173.58px 178.815px 180.991px " y="235.616px 235.616px 235.616px 235.616px ">[1]0</tspan></text>
        <text x="166.199px" y="250.558px" style="font-family:'LucidaGrande', 'Lucida Grande', sans-serif;font-weight:500;font-size:9.963px;">b<tspan x="171.405px 173.58px 178.815px 180.991px " y="250.558px 250.558px 250.558px 250.558px ">[2]0</tspan></text>
        <text x="166.199px" y="265.501px" style="font-family:'LucidaGrande', 'Lucida Grande', sans-serif;font-weight:500;font-size:9.963px;">b<tspan x="171.405px 173.58px 178.815px 180.991px " y="265.501px 265.501px 265.501px 265.501px ">[3]0</tspan></text>
        <text x="152.033px" y="280.443px" style="font-family:'LucidaGrande', 'Lucida Grande', sans-serif;font-weight:500;font-size:9.963px;">c<tspan x="156.428px 161.84px 167.316px 170.334px 172.866px 178.458px 180.991px " y="280.443px 280.443px 280.443px 280.443px 280.443px 280.443px 280.443px ">out[0]0</tspan></text>
    </g>
    <g transform="matrix(1,0,0,1,-152.573,-127.909)">
        <text x="196.929px" y="161.817px" style="font-family:'LucidaGrande', 'Lucida Grande', sans-serif;font-weight:500;font-size:9.963px;">X</text>
    </g>
    <g transform="matrix(1,0,0,1,-152.573,-127.909)">
        <text x="196.929px" y="221.593px" style="font-family:'LucidaGrande', 'Lucida Grande', sans-serif;font-weight:500;font-size:9.963px;">X</text>
        <text x="196.929px" y="236.536px" style="font-family:'LucidaGrande', 'Lucida Grande', sans-serif;font-weight:500;font-size:9.963px;">X</text>
        <text x="196.929px" y="251.478px" style="font-family:'LucidaGrande', 'Lucida Grande', sans-serif;font-weight:500;font-size:9.963px;">X</text>
        <text x="196.929px" y="266.421px" style="font-family:'LucidaGrande', 'Lucida Grande', sans-serif;font-weight:500;font-size:9.963px;">X</text>
    </g>
    <g transform="matrix(1,0,0,1,-152.573,-127.909)">
        <text x="212.575px" y="131.509px" style="font-family:'LucidaGrande', 'Lucida Grande', sans-serif;font-weight:500;font-size:4.981px;">m<tspan x="217.895px 221.315px 223.5px 227.229px 229.936px 232.045px 234.578px " y="131.509px 131.509px 131.509px 131.509px 131.509px 131.509px 131.509px ">ajority</tspan></text>
        <text x="222.866px" y="146.682px" style="font-family:'LucidaGrande', 'Lucida Grande', sans-serif;font-weight:500;font-size:9.963px;">0</text>
        <text x="231.833px" y="148.946px" style="font-family:'LucidaGrande', 'Lucida Grande', sans-serif;font-weight:500;font-size:4.981px;">m<tspan x="237.818px 241.902px 244.751px 249.145px 252.517px 255.291px 258.488px " y="148.946px 148.946px 148.946px 148.946px 148.946px 148.946px 148.946px ">ajority</tspan></text>
        <text x="222.866px" y="161.624px" style="font-family:'LucidaGrande', 'Lucida Grande', sans-serif;font-weight:500;font-size:9.963px;">2</text>
        <text x="222.866px" y="221.397px" style="font-family:'LucidaGrande', 'Lucida Grande', sans-serif;font-weight:500;font-size:9.963px;">1</text>
    </g>
    <g transform="matrix(1,0,0,1,-152.573,-127.909)">
        <text x="246.777px" y="161.623px" style="font-family:'LucidaGrande', 'Lucida Grande', sans-serif;font-weight:500;font-size:9.963px;">0</text>
        <text x="246.777px" y="176.566px" style="font-family:'LucidaGrande', 'Lucida Grande', sans-serif;font-weight:500;font-size:9.963px;">2</text>
    </g>
    <g transform="matrix(1,0,0,1,-152.573,-127.909)">
        <text x="246.777px" y="236.343px" style="font-family:'LucidaGrande', 'Lucida Grande', sans-serif;font-weight:500;font-size:9.963px;">1</text>
    </g>
    <g transform="matrix(1,0,0,1,-152.573,-127.909)">
        <text x="260.396px" y="163.887px" style="font-family:'LucidaGrande', 'Lucida Grande', sans-serif;font-weight:500;font-size:4.981px;">m<tspan x="265.716px 269.136px 271.321px 275.05px 277.757px 279.866px 282.399px " y="163.887px 163.887px 163.887px 163.887px 163.887px 163.887px 163.887px ">ajority</tspan></text>
        <text x="270.687px" y="176.57px" style="font-family:'LucidaGrande', 'Lucida Grande', sans-serif;font-weight:500;font-size:9.963px;">0</text>
        <text x="279.654px" y="180.329px" style="font-family:'LucidaGrande', 'Lucida Grande', sans-serif;font-weight:500;font-size:4.981px;">m<tspan x="285.639px 289.723px 292.572px 296.966px 300.338px 303.112px 306.309px " y="180.329px 180.329px 180.329px 180.329px 180.329px 180.329px 180.329px ">ajority</tspan></text>
        <text x="270.687px" y="191.512px" style="font-family:'LucidaGrande', 'Lucida Grande', sans-serif;font-weight:500;font-size:9.963px;">2</text>
        <text x="270.687px" y="251.285px" style="font-family:'LucidaGrande', 'Lucida Grande', sans-serif;font-weight:500;font-size:9.963px;">1</text>
    </g>
    <g transform="matrix(0,-1,-1,0,234.181,167.989)">
        <rect x="101.62" y="83.687" width="11.955" height="11.955" style="fill:white;stroke:black;stroke-width:0.4px;"/>
    </g>
    <g transform="matrix(0,-1,-1,0,219.237,182.933)">
        <rect x="101.62" y="68.743" width="11.955" height="11.955" style="fill:white;stroke:black;stroke-width:0.4px;"/>
    </g>
    <g transform="matrix(0,-1,-1,0,159.46,242.71)">
        <rect x="101.62" y="8.966" width="11.955" height="11.955" style="fill:white;stroke:black;stroke-width:0.4px;"/>
    </g>
    <g transform="matrix(0,1,1,0,128.077,-15.8243)">
        <path d="M91.159,37.36L165.88,37.36" style="fill:none;fill-rule:nonzero;stroke:black;stroke-width:0.4px;"/>
    </g>
    <g transform="matrix(0,-1,-1,0,165.438,278.575)">
        <circle cx="128.52" cy="0" r="2.989" style="fill:white;stroke:black;stroke-width:0.4px;"/>
    </g>
    <g transform="matrix(1,0,0,1,-152.573,-127.909)">
        <clipPath id="_clip1">
            <path d="M321,277.965C321,276.314 319.661,274.976 318.011,274.976C316.36,274.976 315.022,276.314 315.022,277.965C315.022,279.616 316.36,280.954 318.011,280.954C319.661,280.954 321,279.616 321,277.965Z" clip-rule="nonzero"/>
        </clipPath>
        <g clip-path="url(#_clip1)">
            <g transform="matrix(1,0,0,1,189.491,277.965)">
                <path d="M125.531,0L131.509,0" style="fill:none;fill-rule:nonzero;stroke:black;stroke-width:0.4px;"/>
            </g>
            <g transform="matrix(0,-1,-1,0,318.011,406.485)">
                <path d="M125.531,0L131.509,0" style="fill:none;fill-rule:nonzero;stroke:black;stroke-width:0.4px;"/>
            </g>
        </g>
    </g>
    <g transform="matrix(0,-1,-1,0,240.159,203.855)">
        <circle cx="128.52" cy="74.721" r="1.494" style="stroke:black;stroke-width:0.4px;"/>
    </g>
    <g transform="matrix(0,1,1,0,134.055,-51.6903)">
        <path d="M112.081,52.305L186.802,52.305" style="fill:none;fill-rule:nonzero;stroke:black;stroke-width:0.4px;"/>
    </g>
    <g transform="matrix(1,0,0,1,-152.573,-127.909)">
        <text x="294.597px" y="191.511px" style="font-family:'LucidaGrande', 'Lucida Grande', sans-serif;font-weight:500;font-size:9.963px;">0</text>
        <text x="294.597px" y="206.454px" style="font-family:'LucidaGrande', 'Lucida Grande', sans-serif;font-weight:500;font-size:9.963px;">2</text>
    </g>
    <g transform="matrix(1,0,0,1,-152.573,-127.909)">
        <text x="294.597px" y="266.231px" style="font-family:'LucidaGrande', 'Lucida Grande', sans-serif;font-weight:500;font-size:9.963px;">1</text>
    </g>
    <g transform="matrix(1,0,0,1,-152.573,-127.909)">
        <text x="329.504px" y="180.824px" style="font-family:'LucidaGrande', 'Lucida Grande', sans-serif;font-weight:500;font-size:4.981px;">u<tspan x="333.368px 337.233px 342.656px 346.18px " y="180.824px 180.824px 180.824px 180.824px ">nmaj</tspan></text>
    </g>
    <g transform="matrix(0,-1,-1,0,276.024,209.832)">
        <rect x="143.464" y="83.687" width="11.955" height="11.955" style="fill:white;stroke:black;stroke-width:0.4px;"/>
    </g>
    <g transform="matrix(0,-1,-1,0,261.08,224.777)">
        <rect x="143.464" y="68.743" width="11.955" height="11.955" style="fill:white;stroke:black;stroke-width:0.4px;"/>
    </g>
    <g transform="matrix(0,-1,-1,0,201.304,284.553)">
        <rect x="143.464" y="8.966" width="11.955" height="11.955" style="fill:white;stroke:black;stroke-width:0.4px;"/>
    </g>
    <g transform="matrix(0,1,1,0,143.022,-90.5451)">
        <path d="M135.992,67.249L210.713,67.249" style="fill:none;fill-rule:nonzero;stroke:black;stroke-width:0.4px;"/>
    </g>
    <g transform="matrix(1,0,0,1,-152.573,-127.909)">
        <text x="336.44px" y="191.511px" style="font-family:'LucidaGrande', 'Lucida Grande', sans-serif;font-weight:500;font-size:9.963px;">0</text>
        <text x="336.44px" y="206.454px" style="font-family:'LucidaGrande', 'Lucida Grande', sans-serif;font-weight:500;font-size:9.963px;">2</text>
    </g>
    <g transform="matrix(1,0,0,1,-152.573,-127.909)">
        <text x="336.44px" y="266.231px" style="font-family:'LucidaGrande', 'Lucida Grande', sans-serif;font-weight:500;font-size:9.963px;">1</text>
    </g>
    <g transform="matrix(1,0,0,1,-152.573,-127.909)">
        <text x="353.415px" y="164.884px" style="font-family:'LucidaGrande', 'Lucida Grande', sans-serif;font-weight:500;font-size:4.981px;">u<tspan x="357.278px 361.141px 366.564px 370.086px " y="164.884px 164.884px 164.884px 164.884px ">nmaj</tspan></text>
    </g>
    <g transform="matrix(0,-1,-1,0,314.879,218.799)">
        <rect x="167.375" y="98.631" width="11.955" height="11.955" style="fill:white;stroke:black;stroke-width:0.4px;"/>
    </g>
    <g transform="matrix(0,-1,-1,0,299.935,233.743)">
        <rect x="167.375" y="83.687" width="11.955" height="11.955" style="fill:white;stroke:black;stroke-width:0.4px;"/>
    </g>
    <g transform="matrix(0,-1,-1,0,240.159,293.52)">
        <rect x="167.375" y="23.911" width="11.955" height="11.955" style="fill:white;stroke:black;stroke-width:0.4px;"/>
    </g>
    <g transform="matrix(0,1,1,0,151.988,-129.4)">
        <path d="M159.902,82.193L234.623,82.193" style="fill:none;fill-rule:nonzero;stroke:black;stroke-width:0.4px;"/>
    </g>
    <g transform="matrix(1,0,0,1,-152.573,-127.909)">
        <text x="360.351px" y="176.567px" style="font-family:'LucidaGrande', 'Lucida Grande', sans-serif;font-weight:500;font-size:9.963px;">0</text>
        <text x="360.351px" y="191.51px" style="font-family:'LucidaGrande', 'Lucida Grande', sans-serif;font-weight:500;font-size:9.963px;">2</text>
    </g>
    <g transform="matrix(1,0,0,1,-152.573,-127.909)">
        <text x="360.351px" y="251.287px" style="font-family:'LucidaGrande', 'Lucida Grande', sans-serif;font-weight:500;font-size:9.963px;">1</text>
    </g>
    <g transform="matrix(1,0,0,1,-152.573,-127.909)">
        <text x="377.325px" y="149.94px" style="font-family:'LucidaGrande', 'Lucida Grande', sans-serif;font-weight:500;font-size:4.981px;">u<tspan x="381.188px 385.051px 390.474px 393.996px " y="149.94px 149.94px 149.94px 149.94px ">nmaj</tspan></text>
    </g>
    <g transform="matrix(0,-1,-1,0,353.734,227.765)">
        <rect x="191.285" y="113.576" width="11.955" height="11.955" style="fill:white;stroke:black;stroke-width:0.4px;"/>
    </g>
    <g transform="matrix(0,-1,-1,0,338.79,242.71)">
        <rect x="191.285" y="98.631" width="11.955" height="11.955" style="fill:white;stroke:black;stroke-width:0.4px;"/>
    </g>
    <g transform="matrix(0,-1,-1,0,279.013,302.486)">
        <rect x="191.285" y="38.855" width="11.955" height="11.955" style="fill:white;stroke:black;stroke-width:0.4px;"/>
    </g>
    <g transform="matrix(0,1,1,0,160.954,-168.255)">
        <path d="M183.813,97.137L258.534,97.137" style="fill:none;fill-rule:nonzero;stroke:black;stroke-width:0.4px;"/>
    </g>
    <g transform="matrix(0,-1,-1,0,392.589,236.732)">
        <rect x="215.196" y="128.52" width="11.955" height="11.955" style="fill:white;stroke:black;stroke-width:0.4px;"/>
    </g>
    <g transform="matrix(0,-1,-1,0,377.645,251.676)">
        <rect x="215.196" y="113.576" width="11.955" height="11.955" style="fill:white;stroke:black;stroke-width:0.4px;"/>
    </g>
    <g transform="matrix(0,-1,-1,0,317.868,311.453)">
        <rect x="215.196" y="53.799" width="11.955" height="11.955" style="fill:white;stroke:black;stroke-width:0.4px;"/>
    </g>
    <g transform="matrix(1,0,0,1,-152.573,-127.909)">
        <text x="384.261px" y="161.623px" style="font-family:'LucidaGrande', 'Lucida Grande', sans-serif;font-weight:500;font-size:9.963px;">0</text>
        <text x="384.261px" y="176.566px" style="font-family:'LucidaGrande', 'Lucida Grande', sans-serif;font-weight:500;font-size:9.963px;">2</text>
    </g>
    <g transform="matrix(1,0,0,1,-152.573,-127.909)">
        <text x="384.261px" y="236.343px" style="font-family:'LucidaGrande', 'Lucida Grande', sans-serif;font-weight:500;font-size:9.963px;">1</text>
    </g>
    <g transform="matrix(1,0,0,1,-152.573,-127.909)">
        <text x="401.235px" y="132.007px" style="font-family:'LucidaGrande', 'Lucida Grande', sans-serif;font-weight:500;font-size:4.981px;">u<tspan x="405.099px 408.964px 414.387px 417.911px " y="132.007px 132.007px 132.007px 132.007px ">nmaj</tspan></text>
        <text x="408.171px" y="146.68px" style="font-family:'LucidaGrande', 'Lucida Grande', sans-serif;font-weight:500;font-size:9.963px;">0</text>
        <text x="408.171px" y="161.622px" style="font-family:'LucidaGrande', 'Lucida Grande', sans-serif;font-weight:500;font-size:9.963px;">2</text>
        <text x="408.171px" y="221.395px" style="font-family:'LucidaGrande', 'Lucida Grande', sans-serif;font-weight:500;font-size:9.963px;">1</text>
    </g>
    <g transform="matrix(1,0,0,1,-152.573,-127.909)">
        <text x="450.047px" y="220.679px" style="font-family:'LucidaGrande', 'Lucida Grande', sans-serif;font-weight:500;font-size:9.963px;">a<tspan x="455.021px 460.677px 465.228px 467.94px 473.712px " y="220.679px 220.679px 220.679px 220.679px 220.679px ">ns[0]</tspan></text>
        <text x="450.047px" y="235.622px" style="font-family:'LucidaGrande', 'Lucida Grande', sans-serif;font-weight:500;font-size:9.963px;">a<tspan x="455.021px 460.677px 465.228px 467.94px 473.712px " y="235.622px 235.622px 235.622px 235.622px 235.622px ">ns[1]</tspan></text>
        <text x="450.047px" y="250.564px" style="font-family:'LucidaGrande', 'Lucida Grande', sans-serif;font-weight:500;font-size:9.963px;">a<tspan x="455.021px 460.677px 465.228px 467.94px 473.712px " y="250.564px 250.564px 250.564px 250.564px 250.564px ">ns[2]</tspan></text>
        <text x="450.047px" y="265.507px" style="font-family:'LucidaGrande', 'Lucida Grande', sans-serif;font-weight:500;font-size:9.963px;">a<tspan x="455.021px 460.677px 465.228px 467.94px 473.712px " y="265.507px 265.507px 265.507px 265.507px 265.507px ">ns[3]</tspan></text>
        <text x="450.047px" y="280.449px" style="font-family:'LucidaGrande', 'Lucida Grande', sans-serif;font-weight:500;font-size:9.963px;">a<tspan x="455.021px 460.677px 465.228px 467.94px 473.712px " y="280.449px 280.449px 280.449px 280.449px 280.449px ">ns[4]</tspan></text>
    </g>
    <g transform="matrix(0,-1,-1,0,341.779,335.363)">
        <rect x="239.106" y="53.799" width="11.955" height="11.955" style="fill:white;stroke:black;stroke-width:0.4px;"/>
    </g>
    <g transform="matrix(-0.866026,0.499998,0.499998,0.866026,459.982,-81.0632)">
        <path d="M239.507,58.88C241.356,57.812 243.635,57.812 245.485,58.88" style="fill:none;fill-rule:nonzero;stroke:black;stroke-width:0.2px;"/>
    </g>
    <g transform="matrix(0.866026,0.499998,0.499998,-0.866026,40.6597,18.3316)">
        <path d="M244.684,58.88C246.533,59.948 248.812,59.948 250.661,58.88" style="fill:none;fill-rule:nonzero;stroke:black;stroke-width:0.2px;"/>
    </g>
    <g transform="matrix(0.173648,-0.984808,-0.984808,-0.173648,297.669,343.778)">
        <path d="M241.629,58.514L249.991,58.514" style="fill:none;fill-rule:nonzero;stroke:black;stroke-width:0.4px;"/>
    </g>
    <g transform="matrix(0.17363,-0.9848,0.9848,0.17363,283.454,87.4249)">
        <path d="M1.993,0L-1.196,-1.594L0,0L-1.196,1.594" style="fill-rule:nonzero;"/>
    </g>
    <g transform="matrix(0,-1,-1,0,326.835,350.307)">
        <rect x="239.106" y="38.855" width="11.955" height="11.955" style="fill:white;stroke:black;stroke-width:0.4px;"/>
    </g>
    <g transform="matrix(-0.866026,0.499998,0.499998,0.866026,467.454,-53.177)">
        <path d="M239.507,43.936C241.356,42.868 243.635,42.868 245.485,43.936" style="fill:none;fill-rule:nonzero;stroke:black;stroke-width:0.2px;"/>
    </g>
    <g transform="matrix(0.866026,0.499998,0.499998,-0.866026,48.1318,20.3337)">
        <path d="M244.684,43.936C246.533,45.003 248.812,45.003 250.661,43.936" style="fill:none;fill-rule:nonzero;stroke:black;stroke-width:0.2px;"/>
    </g>
    <g transform="matrix(0.173648,-0.984808,-0.984808,-0.173648,282.951,356.128)">
        <path d="M241.629,43.57L249.991,43.57" style="fill:none;fill-rule:nonzero;stroke:black;stroke-width:0.4px;"/>
    </g>
    <g transform="matrix(0.17363,-0.9848,0.9848,0.17363,283.454,102.369)">
        <path d="M1.993,0L-1.196,-1.594L0,0L-1.196,1.594" style="fill-rule:nonzero;"/>
    </g>
    <g transform="matrix(0,-1,-1,0,311.89,365.252)">
        <rect x="239.106" y="23.911" width="11.955" height="11.955" style="fill:white;stroke:black;stroke-width:0.4px;"/>
    </g>
    <g transform="matrix(-0.866026,0.499998,0.499998,0.866026,474.926,-25.2908)">
        <path d="M239.507,28.992C241.356,27.924 243.635,27.924 245.485,28.992" style="fill:none;fill-rule:nonzero;stroke:black;stroke-width:0.2px;"/>
    </g>
    <g transform="matrix(0.866026,0.499998,0.499998,-0.866026,55.6038,22.3358)">
        <path d="M244.684,28.992C246.533,30.059 248.812,30.059 250.661,28.992" style="fill:none;fill-rule:nonzero;stroke:black;stroke-width:0.2px;"/>
    </g>
    <g transform="matrix(0.173647,-0.984808,-0.984808,-0.173647,268.234,368.477)">
        <path d="M241.629,28.625L249.991,28.625" style="fill:none;fill-rule:nonzero;stroke:black;stroke-width:0.4px;"/>
    </g>
    <g transform="matrix(0.17363,-0.9848,0.9848,0.17363,283.454,117.313)">
        <path d="M1.993,0L-1.196,-1.594L0,0L-1.196,1.594" style="fill-rule:nonzero;"/>
    </g>
    <g transform="matrix(0,-1,-1,0,296.946,380.196)">
        <rect x="239.106" y="8.966" width="11.955" height="11.955" style="fill:white;stroke:black;stroke-width:0.4px;"/>
    </g>
    <g transform="matrix(-0.866026,0.499998,0.499998,0.866026,482.398,2.59534)">
        <path d="M239.507,14.048C241.356,12.98 243.635,12.98 245.485,14.048" style="fill:none;fill-rule:nonzero;stroke:black;stroke-width:0.2px;"/>
    </g>
    <g transform="matrix(0.866026,0.499998,0.499998,-0.866026,63.0759,24.338)">
        <path d="M244.684,14.048C246.533,15.115 248.812,15.115 250.661,14.048" style="fill:none;fill-rule:nonzero;stroke:black;stroke-width:0.2px;"/>
    </g>
    <g transform="matrix(0.173647,-0.984808,-0.984808,-0.173647,253.517,380.826)">
        <path d="M241.629,13.681L249.991,13.681" style="fill:none;fill-rule:nonzero;stroke:black;stroke-width:0.4px;"/>
    </g>
    <g transform="matrix(0.17363,-0.9848,0.9848,0.17363,283.454,132.257)">
        <path d="M1.993,0L-1.196,-1.594L0,0L-1.196,1.594" style="fill-rule:nonzero;"/>
    </g>
    <g transform="matrix(0,-1,-1,0,282.002,395.14)">
        <rect x="239.106" y="-5.978" width="11.955" height="11.955" style="fill:white;stroke:black;stroke-width:0.4px;"/>
    </g>
    <g transform="matrix(-0.866028,0.499996,0.499996,0.866028,489.87,30.4821)">
        <path d="M239.507,-0.897C241.356,-1.964 243.635,-1.964 245.485,-0.897" style="fill:none;fill-rule:nonzero;stroke:black;stroke-width:0.2px;"/>
    </g>
    <g transform="matrix(0.866028,0.499996,0.499996,-0.866028,70.5476,26.3407)">
        <path d="M244.684,-0.897C246.533,0.171 248.812,0.171 250.661,-0.897" style="fill:none;fill-rule:nonzero;stroke:black;stroke-width:0.2px;"/>
    </g>
    <g transform="matrix(0.173648,-0.984808,-0.984808,-0.173648,238.8,393.175)">
        <path d="M241.629,-1.263L249.991,-1.263" style="fill:none;fill-rule:nonzero;stroke:black;stroke-width:0.4px;"/>
    </g>
    <g transform="matrix(0.17363,-0.9848,0.9848,0.17363,283.454,147.202)">
        <path d="M1.993,0L-1.196,-1.594L0,0L-1.196,1.594" style="fill-rule:nonzero;"/>
    </g>
</svg>
