<?xml version="1.0" encoding="UTF-8" standalone="no"?>
<!DOCTYPE svg PUBLIC "-//W3C//DTD SVG 1.1//EN" "http://www.w3.org/Graphics/SVG/1.1/DTD/svg11.dtd">
<svg width="100%" height="100%" viewBox="0 0 233 34" version="1.1" xmlns="http://www.w3.org/2000/svg" xmlns:xlink="http://www.w3.org/1999/xlink" xml:space="preserve" xmlns:serif="http://www.serif.com/" style="fill-rule:evenodd;clip-rule:evenodd;stroke-miterlimit:10;">
    <g transform="matrix(0,-1,-1,0,126.397,112.589)">
        <rect x="80.698" y="-88.171" width="29.888" height="191.285" style="fill:white;stroke:white;stroke-width:0.4px;"/>
    </g>
    <g transform="matrix(1,0,0,1,23.282,-5.46963)">
        <path d="M0,14.944L179.33,14.944" style="fill:none;fill-rule:nonzero;stroke:black;stroke-width:0.4px;"/>
    </g>
    <g transform="matrix(1,0,0,1,23.282,-4.47335)">
        <path d="M179.33,14.446L191.285,14.446" style="fill:none;fill-rule:nonzero;stroke:black;stroke-width:0.4px;"/>
    </g>
    <g transform="matrix(1,0,0,1,23.282,-6.46591)">
        <path d="M179.33,15.442L191.285,15.442" style="fill:none;fill-rule:nonzero;stroke:black;stroke-width:0.4px;"/>
    </g>
    <g transform="matrix(1,0,0,1,23.282,24.4187)">
        <path d="M0,0L179.33,0" style="fill:none;fill-rule:nonzero;stroke:black;stroke-width:0.4px;"/>
    </g>
    <g transform="matrix(1,0,0,1,23.282,25.4149)">
        <path d="M179.33,-0.498L191.285,-0.498" style="fill:none;fill-rule:nonzero;stroke:black;stroke-width:0.4px;"/>
    </g>
    <g transform="matrix(1,0,0,1,23.282,23.4224)">
        <path d="M179.33,0.498L191.285,0.498" style="fill:none;fill-rule:nonzero;stroke:black;stroke-width:0.4px;"/>
    </g>
    <g transform="matrix(0,-1,-1,0,42.7094,28.9019)">
        <path d="M-2.989,7.472L26.899,7.472" style="fill:none;fill-rule:nonzero;stroke:black;stroke-width:0.4px;"/>
    </g>
    <g transform="matrix(0,-1,-1,0,62.1368,33.3852)">
        <rect x="17.933" y="8.966" width="11.955" height="11.955" style="fill:white;stroke:black;stroke-width:0.4px;"/>
    </g>
    <g transform="matrix(0,-1,-1,0,66.6201,52.8126)">
        <path d="M20.922,7.472L50.81,7.472" style="fill:none;fill-rule:nonzero;stroke:black;stroke-width:0.4px;"/>
    </g>
    <g transform="matrix(0,1,1,0,60.6424,-27.8859)">
        <path d="M37.36,7.472L52.305,7.472" style="fill:none;fill-rule:nonzero;stroke:black;stroke-width:0.4px;"/>
    </g>
    <g transform="matrix(0,-1,-1,0,83.0586,54.307)">
        <circle cx="44.832" cy="14.944" r="1.494" style="stroke:black;stroke-width:0.4px;"/>
    </g>
    <g transform="matrix(0,-1,-1,0,68.1145,69.2511)">
        <ellipse cx="44.832" cy="0" rx="1.494" ry="1.494" style="stroke:black;stroke-width:0.4px;"/>
    </g>
    <g transform="matrix(0,-1,-1,0,84.5531,70.7455)">
        <path d="M38.855,7.472L68.743,7.472" style="fill:none;fill-rule:nonzero;stroke:black;stroke-width:0.4px;"/>
    </g>
    <g transform="matrix(0,-1,-1,0,103.98,75.2288)">
        <rect x="59.777" y="8.966" width="11.955" height="11.955" style="fill:white;stroke:black;stroke-width:0.4px;"/>
    </g>
    <g transform="matrix(0,1,1,0,102.486,-69.7295)">
        <path d="M79.204,7.472L94.148,7.472" style="fill:none;fill-rule:nonzero;stroke:black;stroke-width:0.4px;"/>
    </g>
    <g transform="matrix(0,-1,-1,0,124.902,96.1506)">
        <circle cx="86.676" cy="14.944" r="1.494" style="stroke:black;stroke-width:0.4px;"/>
    </g>
    <g transform="matrix(0,-1,-1,0,109.958,111.095)">
        <ellipse cx="86.676" cy="0" rx="1.494" ry="1.494" style="stroke:black;stroke-width:0.4px;"/>
    </g>
    <g transform="matrix(0,-1,-1,0,126.397,112.589)">
        <path d="M80.698,7.472L110.587,7.472" style="fill:none;fill-rule:nonzero;stroke:black;stroke-width:0.4px;"/>
    </g>
    <g transform="matrix(0,-1,-1,0,145.824,117.072)">
        <rect x="101.62" y="8.966" width="11.955" height="11.955" style="fill:white;stroke:black;stroke-width:0.4px;"/>
    </g>
    <g transform="matrix(0,-1,-1,0,169.735,140.983)">
        <rect x="125.531" y="8.966" width="11.955" height="11.955" style="fill:white;stroke:black;stroke-width:0.4px;"/>
    </g>
    <g transform="matrix(0,-1,-1,0,193.645,164.894)">
        <rect x="149.442" y="8.966" width="11.955" height="11.955" style="fill:white;stroke:black;stroke-width:0.4px;"/>
    </g>
    <g transform="matrix(1,0,0,1,-152.573,-123.629)">
        <text x="152.033px" y="135.595px" style="font-family:'LucidaGrande', 'Lucida Grande', sans-serif;font-weight:500;font-size:9.963px;">q<tspan x="157.371px 159.679px 165.047px 167.355px " y="135.595px 135.595px 135.595px 135.595px ">[0]0</tspan></text>
        <text x="152.033px" y="150.538px" style="font-family:'LucidaGrande', 'Lucida Grande', sans-serif;font-weight:500;font-size:9.963px;">q<tspan x="157.371px 159.679px 165.047px 167.355px " y="150.538px 150.538px 150.538px 150.538px ">[1]0</tspan></text>
    </g>
    <g transform="matrix(1,0,0,1,-152.573,-123.629)">
        <text x="195.22px" y="136.508px" style="font-family:'LucidaGrande', 'Lucida Grande', sans-serif;font-weight:500;font-size:9.963px;">H</text>
    </g>
    <g transform="matrix(1,0,0,1,-152.573,-123.629)">
        <text x="238.267px" y="136.508px" style="font-family:'LucidaGrande', 'Lucida Grande', sans-serif;font-weight:500;font-size:9.963px;">S</text>
    </g>
    <g transform="matrix(1,0,0,1,-152.573,-123.629)">
        <text x="280.11px" y="136.508px" style="font-family:'LucidaGrande', 'Lucida Grande', sans-serif;font-weight:500;font-size:9.963px;">S<tspan x="303.09px 326.727px " y="136.508px 136.508px ">ZH</tspan></text>
    </g>
    <g transform="matrix(1,0,0,1,-152.573,-123.629)">
        <text x="370.657px" y="135.595px" style="font-family:'LucidaGrande', 'Lucida Grande', sans-serif;font-weight:500;font-size:9.963px;">c<tspan x="374.899px 377.279px 382.718px " y="135.595px 135.595px 135.595px ">[0]</tspan></text>
        <text x="370.657px" y="150.538px" style="font-family:'LucidaGrande', 'Lucida Grande', sans-serif;font-weight:500;font-size:9.963px;">c<tspan x="374.899px 377.279px 382.718px " y="150.538px 150.538px 150.538px ">[1]</tspan></text>
    </g>
    <g transform="matrix(0,-1,-1,0,198.129,184.321)">
        <path d="M152.43,7.472L182.319,7.472" style="fill:none;fill-rule:nonzero;stroke:black;stroke-width:0.4px;"/>
    </g>
    <g transform="matrix(0,-1,-1,0,217.556,188.804)">
        <rect x="173.352" y="8.966" width="11.955" height="11.955" style="fill:white;stroke:black;stroke-width:0.4px;"/>
    </g>
    <g transform="matrix(-0.866026,0.499998,0.499998,0.866026,346.062,-90.1647)">
        <path d="M173.753,14.048C175.602,12.98 177.881,12.98 179.73,14.048" style="fill:none;fill-rule:nonzero;stroke:black;stroke-width:0.2px;"/>
    </g>
    <g transform="matrix(0.866026,0.499999,0.499999,-0.866026,40.6306,-68.4223)">
        <path d="M178.929,14.048C180.779,15.115 183.058,15.115 184.907,14.048" style="fill:none;fill-rule:nonzero;stroke:black;stroke-width:0.2px;"/>
    </g>
    <g transform="matrix(0.173646,-0.984808,-0.984808,-0.173646,185.545,190.433)">
        <path d="M175.875,13.681L184.236,13.681" style="fill:none;fill-rule:nonzero;stroke:black;stroke-width:0.4px;"/>
    </g>
    <g transform="matrix(0.17363,-0.9848,0.9848,0.17363,204.064,6.62025)">
        <path d="M1.993,0L-1.196,-1.594L0,0L-1.196,1.594" style="fill-rule:nonzero;"/>
    </g>
    <g transform="matrix(0,-1,-1,0,202.612,203.749)">
        <rect x="173.352" y="-5.978" width="11.955" height="11.955" style="fill:white;stroke:black;stroke-width:0.4px;"/>
    </g>
    <g transform="matrix(-0.866028,0.499996,0.499996,0.866028,353.535,-62.2781)">
        <path d="M173.753,-0.897C175.602,-1.964 177.881,-1.964 179.73,-0.897" style="fill:none;fill-rule:nonzero;stroke:black;stroke-width:0.2px;"/>
    </g>
    <g transform="matrix(0.866027,0.499996,0.499996,-0.866027,48.1024,-66.4197)">
        <path d="M178.929,-0.897C180.779,0.171 183.058,0.171 184.907,-0.897" style="fill:none;fill-rule:nonzero;stroke:black;stroke-width:0.2px;"/>
    </g>
    <g transform="matrix(0.173647,-0.984808,-0.984808,-0.173647,170.828,202.783)">
        <path d="M175.875,-1.263L184.236,-1.263" style="fill:none;fill-rule:nonzero;stroke:black;stroke-width:0.4px;"/>
    </g>
    <g transform="matrix(0.17363,-0.9848,0.9848,0.17363,204.064,21.5644)">
        <path d="M1.993,0L-1.196,-1.594L0,0L-1.196,1.594" style="fill-rule:nonzero;"/>
    </g>
</svg>
