<?xml version="1.0" encoding="UTF-8" standalone="no"?>
<!DOCTYPE svg PUBLIC "-//W3C//DTD SVG 1.1//EN" "http://www.w3.org/Graphics/SVG/1.1/DTD/svg11.dtd">
<svg width="100%" height="100%" viewBox="0 0 243 104" version="1.1" xmlns="http://www.w3.org/2000/svg" xmlns:xlink="http://www.w3.org/1999/xlink" xml:space="preserve" xmlns:serif="http://www.serif.com/" style="fill-rule:evenodd;clip-rule:evenodd;stroke-miterlimit:10;">
    <g transform="matrix(0,-1,-1,0,166.594,150.727)">
        <rect x="50.81" y="-58.282" width="89.665" height="191.285" style="fill:white;stroke:white;stroke-width:0.4px;"/>
    </g>
    <g transform="matrix(1,0,0,1,33.5913,-56.9967)">
        <path d="M0,74.721L179.33,74.721" style="fill:none;fill-rule:nonzero;stroke:black;stroke-width:0.4px;"/>
    </g>
    <g transform="matrix(1,0,0,1,33.5913,-56.0005)">
        <path d="M179.33,74.223L191.285,74.223" style="fill:none;fill-rule:nonzero;stroke:black;stroke-width:0.4px;"/>
    </g>
    <g transform="matrix(1,0,0,1,33.5913,-57.993)">
        <path d="M179.33,75.219L191.285,75.219" style="fill:none;fill-rule:nonzero;stroke:black;stroke-width:0.4px;"/>
    </g>
    <g transform="matrix(1,0,0,1,33.5913,-27.1084)">
        <path d="M0,59.777L179.33,59.777" style="fill:none;fill-rule:nonzero;stroke:black;stroke-width:0.4px;"/>
    </g>
    <g transform="matrix(1,0,0,1,33.5913,-26.1122)">
        <path d="M179.33,59.278L191.285,59.278" style="fill:none;fill-rule:nonzero;stroke:black;stroke-width:0.4px;"/>
    </g>
    <g transform="matrix(1,0,0,1,33.5913,-28.1047)">
        <path d="M179.33,60.275L191.285,60.275" style="fill:none;fill-rule:nonzero;stroke:black;stroke-width:0.4px;"/>
    </g>
    <g transform="matrix(1,0,0,1,33.5913,2.77985)">
        <path d="M0,44.832L179.33,44.832" style="fill:none;fill-rule:nonzero;stroke:black;stroke-width:0.4px;"/>
    </g>
    <g transform="matrix(1,0,0,1,33.5913,3.77613)">
        <path d="M179.33,44.334L191.285,44.334" style="fill:none;fill-rule:nonzero;stroke:black;stroke-width:0.4px;"/>
    </g>
    <g transform="matrix(1,0,0,1,33.5913,1.78357)">
        <path d="M179.33,45.331L191.285,45.331" style="fill:none;fill-rule:nonzero;stroke:black;stroke-width:0.4px;"/>
    </g>
    <g transform="matrix(1,0,0,1,33.5913,32.6682)">
        <path d="M0,29.888L59.777,29.888" style="fill:none;fill-rule:nonzero;stroke:black;stroke-width:0.4px;"/>
    </g>
    <g transform="matrix(1,0,0,1,33.5913,32.6682)">
        <path d="M59.777,29.888L191.285,29.888" style="fill:none;fill-rule:nonzero;stroke:black;stroke-width:0.4px;"/>
    </g>
    <g transform="matrix(1,0,0,1,33.5913,62.5565)">
        <path d="M0,14.944L83.687,14.944" style="fill:none;fill-rule:nonzero;stroke:black;stroke-width:0.4px;"/>
    </g>
    <g transform="matrix(1,0,0,1,33.5913,62.5565)">
        <path d="M83.687,14.944L191.285,14.944" style="fill:none;fill-rule:nonzero;stroke:black;stroke-width:0.4px;"/>
    </g>
    <g transform="matrix(1,0,0,1,33.5913,92.4448)">
        <path d="M0,0L191.285,0" style="fill:none;fill-rule:nonzero;stroke:black;stroke-width:0.4px;"/>
    </g>
    <g transform="matrix(1,0,0,1,33.5913,94.4373)">
        <path d="M0,-0.996L191.285,-0.996" style="fill:none;fill-rule:nonzero;stroke:black;stroke-width:0.4px;"/>
    </g>
    <g transform="matrix(0.554701,-0.83205,-0.83205,-0.554701,38.915,102.392)">
        <path d="M4.771,0L19.14,0" style="fill:none;fill-rule:nonzero;stroke:black;stroke-width:0.4px;"/>
    </g>
    <g transform="matrix(0,-1,-1,0,120.267,29.6793)">
        <rect x="5.978" y="68.743" width="11.955" height="11.955" style="fill:white;stroke:black;stroke-width:0.4px;"/>
    </g>
    <g transform="matrix(0,-1,-1,0,94.8623,78.995)">
        <path d="M-20.922,37.36L68.743,37.36" style="fill:none;fill-rule:nonzero;stroke:black;stroke-width:0.4px;"/>
    </g>
    <g transform="matrix(0,1,1,0,24.6248,11.7463)">
        <path d="M5.978,44.832L65.754,44.832" style="fill:none;fill-rule:nonzero;stroke:black;stroke-width:0.4px;"/>
    </g>
    <g transform="matrix(0,-1,-1,0,144.178,53.59)">
        <rect x="29.888" y="68.743" width="11.955" height="11.955" style="fill:white;stroke:black;stroke-width:0.4px;"/>
    </g>
    <g transform="matrix(0,-1,-1,0,129.234,68.5341)">
        <rect x="29.888" y="53.799" width="11.955" height="11.955" style="fill:white;stroke:black;stroke-width:0.4px;"/>
    </g>
    <g transform="matrix(0,-1,-1,0,114.29,83.4783)">
        <rect x="29.888" y="38.855" width="11.955" height="11.955" style="fill:white;stroke:black;stroke-width:0.4px;"/>
    </g>
    <g transform="matrix(0,-1,-1,0,99.3455,98.4224)">
        <rect x="29.888" y="23.911" width="11.955" height="11.955" style="fill:white;stroke:black;stroke-width:0.4px;"/>
    </g>
    <g transform="matrix(0,-1,-1,0,84.4014,113.367)">
        <rect x="29.888" y="8.966" width="11.955" height="11.955" style="fill:white;stroke:black;stroke-width:0.4px;"/>
    </g>
    <g transform="matrix(0,1,1,0,78.4237,17.724)">
        <path d="M44.832,14.944L74.721,14.944" style="fill:none;fill-rule:nonzero;stroke:black;stroke-width:0.4px;"/>
    </g>
    <g transform="matrix(0,-1,-1,0,123.256,122.333)">
        <circle cx="59.777" cy="29.888" r="1.494" style="stroke:black;stroke-width:0.4px;"/>
    </g>
    <g transform="matrix(1,0,0,1,33.5913,92.4448)">
        <clipPath id="_clip1">
            <path d="M62.765,0C62.765,-1.651 61.427,-2.989 59.777,-2.989C58.126,-2.989 56.788,-1.651 56.788,0C56.788,1.651 58.126,2.989 59.777,2.989C61.427,2.989 62.765,1.651 62.765,0Z" clip-rule="nonzero"/>
        </clipPath>
        <g clip-path="url(#_clip1)">
            <path d="M56.788,0L62.765,0" style="fill:none;fill-rule:nonzero;stroke:black;stroke-width:0.4px;"/>
        </g>
    </g>
    <g transform="matrix(0,1,1,0,87.5857,26.8859)">
        <path d="M55.596,5.782L63.957,5.782" style="fill:none;fill-rule:nonzero;stroke:black;stroke-width:0.4px;"/>
    </g>
    <g transform="matrix(0,1,-1,0,93.3679,90.8431)">
        <path d="M1.993,0L-1.196,-1.594L0,0L-1.196,1.594" style="fill-rule:nonzero;"/>
    </g>
    <g transform="matrix(0,-1,-1,0,123.256,122.333)">
        <rect x="53.799" y="23.911" width="11.955" height="11.955" style="fill:white;stroke:black;stroke-width:0.4px;"/>
    </g>
    <g transform="matrix(-0.866026,0.499998,0.499998,0.866026,125.81,9.75158)">
        <path d="M54.199,28.992C56.049,27.924 58.328,27.924 60.177,28.992" style="fill:none;fill-rule:nonzero;stroke:black;stroke-width:0.2px;"/>
    </g>
    <g transform="matrix(0.866026,0.499999,0.499999,-0.866026,27.4508,57.3782)">
        <path d="M59.376,28.992C61.225,30.059 63.505,30.059 65.354,28.992" style="fill:none;fill-rule:nonzero;stroke:black;stroke-width:0.2px;"/>
    </g>
    <g transform="matrix(0.173646,-0.984808,-0.984808,-0.173646,111.778,128.373)">
        <path d="M56.322,28.625L64.683,28.625" style="fill:none;fill-rule:nonzero;stroke:black;stroke-width:0.4px;"/>
    </g>
    <g transform="matrix(0.17363,-0.9848,0.9848,0.17363,94.8198,59.7022)">
        <path d="M1.993,0L-1.196,-1.594L0,0L-1.196,1.594" style="fill-rule:nonzero;"/>
    </g>
    <g transform="matrix(0,1,1,0,109.806,1.28544)">
        <path d="M76.215,7.472L91.159,7.472" style="fill:none;fill-rule:nonzero;stroke:black;stroke-width:0.4px;"/>
    </g>
    <g transform="matrix(0,-1,-1,0,132.223,161.188)">
        <circle cx="83.687" cy="14.944" r="1.494" style="stroke:black;stroke-width:0.4px;"/>
    </g>
    <g transform="matrix(1,0,0,1,33.5913,92.4448)">
        <clipPath id="_clip2">
            <path d="M86.676,0C86.676,-1.651 85.338,-2.989 83.687,-2.989C82.037,-2.989 80.698,-1.651 80.698,0C80.698,1.651 82.037,2.989 83.687,2.989C85.338,2.989 86.676,1.651 86.676,0Z" clip-rule="nonzero"/>
        </clipPath>
        <g clip-path="url(#_clip2)">
            <path d="M80.698,0L86.676,0" style="fill:none;fill-rule:nonzero;stroke:black;stroke-width:0.4px;"/>
        </g>
    </g>
    <g transform="matrix(0,1,1,0,111.496,2.97529)">
        <path d="M79.507,5.782L87.868,5.782" style="fill:none;fill-rule:nonzero;stroke:black;stroke-width:0.4px;"/>
    </g>
    <g transform="matrix(0,1,-1,0,117.279,90.8431)">
        <path d="M1.993,0L-1.196,-1.594L0,0L-1.196,1.594" style="fill-rule:nonzero;"/>
    </g>
    <g transform="matrix(0,-1,-1,0,132.223,161.188)">
        <rect x="77.71" y="8.966" width="11.955" height="11.955" style="fill:white;stroke:black;stroke-width:0.4px;"/>
    </g>
    <g transform="matrix(-0.866027,0.499997,0.499997,0.866027,177.9,25.6825)">
        <path d="M78.11,14.048C79.959,12.98 82.238,12.98 84.088,14.048" style="fill:none;fill-rule:nonzero;stroke:black;stroke-width:0.2px;"/>
    </g>
    <g transform="matrix(0.866026,0.5,0.5,-0.866026,38.1262,47.425)">
        <path d="M83.287,14.048C85.136,15.115 87.415,15.115 89.264,14.048" style="fill:none;fill-rule:nonzero;stroke:black;stroke-width:0.2px;"/>
    </g>
    <g transform="matrix(0.173645,-0.984808,-0.984808,-0.173645,116.82,164.27)">
        <path d="M80.233,13.681L88.594,13.681" style="fill:none;fill-rule:nonzero;stroke:black;stroke-width:0.4px;"/>
    </g>
    <g transform="matrix(0.17363,-0.9848,0.9848,0.17363,118.73,74.6464)">
        <path d="M1.993,0L-1.196,-1.594L0,0L-1.196,1.594" style="fill-rule:nonzero;"/>
    </g>
    <g transform="matrix(0,1,1,0,103.331,-52.0154)">
        <path d="M69.739,37.36L144.46,37.36" style="fill:none;fill-rule:nonzero;stroke:black;stroke-width:0.4px;"/>
    </g>
    <g transform="matrix(0,1,1,0,104.327,-53.0116)">
        <path d="M70.736,37.36L145.456,37.36" style="fill:none;fill-rule:nonzero;stroke:black;stroke-width:0.4px;"/>
    </g>
    <g transform="matrix(0,-1,-1,0,215.91,125.322)">
        <rect x="101.62" y="68.743" width="11.955" height="11.955" style="fill:white;stroke:black;stroke-width:0.4px;"/>
    </g>
    <g transform="matrix(0,-1,-1,0,141.189,200.043)">
        <ellipse cx="107.598" cy="0" rx="1.494" ry="1.494" style="stroke:black;stroke-width:0.4px;"/>
    </g>
    <g transform="matrix(-0.0083329,0.999965,0.999965,0.0083329,135.555,-68.4494)">
        <path d="M100.872,29.888L160.651,29.888" style="fill:none;fill-rule:nonzero;stroke:black;stroke-width:0.4px;"/>
    </g>
    <g transform="matrix(0,1,1,0,135.71,-69.4502)">
        <path d="M102.118,29.888L161.895,29.888" style="fill:none;fill-rule:nonzero;stroke:black;stroke-width:0.4px;"/>
    </g>
    <g transform="matrix(0,-1,-1,0,224.876,164.177)">
        <rect x="125.531" y="53.799" width="11.955" height="11.955" style="fill:white;stroke:black;stroke-width:0.4px;"/>
    </g>
    <g transform="matrix(0,-1,-1,0,165.1,223.953)">
        <ellipse cx="131.509" cy="0" rx="1.494" ry="1.494" style="stroke:black;stroke-width:0.4px;"/>
    </g>
    <g transform="matrix(0,1,1,0,166.096,-84.8925)">
        <path d="M132.505,22.416L177.337,22.416" style="fill:none;fill-rule:nonzero;stroke:black;stroke-width:0.4px;"/>
    </g>
    <g transform="matrix(0,1,1,0,167.092,-85.8888)">
        <path d="M133.501,22.416L178.334,22.416" style="fill:none;fill-rule:nonzero;stroke:black;stroke-width:0.4px;"/>
    </g>
    <g transform="matrix(0,-1,-1,0,233.843,203.032)">
        <rect x="149.442" y="38.855" width="11.955" height="11.955" style="fill:white;stroke:black;stroke-width:0.4px;"/>
    </g>
    <g transform="matrix(1,0,0,1,-154.307,-127.588)">
        <text x="164.076px" y="147.804px" style="font-family:'LucidaGrande', 'Lucida Grande', sans-serif;font-weight:500;font-size:9.963px;">q<tspan x="169.414px 171.722px 177.09px 179.398px " y="147.804px 147.804px 147.804px 147.804px ">[0]0</tspan></text>
        <text x="164.076px" y="162.747px" style="font-family:'LucidaGrande', 'Lucida Grande', sans-serif;font-weight:500;font-size:9.963px;">q<tspan x="169.414px 171.722px 177.09px 179.398px " y="162.747px 162.747px 162.747px 162.747px ">[1]0</tspan></text>
        <text x="164.076px" y="177.689px" style="font-family:'LucidaGrande', 'Lucida Grande', sans-serif;font-weight:500;font-size:9.963px;">q<tspan x="169.414px 171.722px 177.09px 179.398px " y="177.689px 177.689px 177.689px 177.689px ">[2]0</tspan></text>
        <text x="163.615px" y="192.632px" style="font-family:'LucidaGrande', 'Lucida Grande', sans-serif;font-weight:500;font-size:9.963px;">a<tspan x="168.492px 171.107px 176.782px 179.398px " y="192.632px 192.632px 192.632px 192.632px ">[0]0</tspan></text>
        <text x="163.615px" y="207.574px" style="font-family:'LucidaGrande', 'Lucida Grande', sans-serif;font-weight:500;font-size:9.963px;">a<tspan x="168.492px 171.107px 176.782px 179.398px " y="207.574px 207.574px 207.574px 207.574px ">[1]0</tspan></text>
        <text x="153.543px" y="222.267px" style="font-family:'LucidaGrande', 'Lucida Grande', sans-serif;font-weight:500;font-size:9.963px;">s<tspan x="160.644px 167.871px 176.076px " y="222.267px 222.267px 222.267px ">yn0</tspan></text>
    </g>
    <g transform="matrix(1,0,0,1,-154.307,-127.588)">
        <text x="204.37px" y="219.291px" style="font-family:'Monaco';font-size:6.974px;">2</text>
    </g>
    <g transform="matrix(1,0,0,1,-154.307,-127.588)">
        <text x="195.336px" y="148.717px" style="font-family:'LucidaGrande', 'Lucida Grande', sans-serif;font-weight:500;font-size:9.963px;">X</text>
    </g>
    <g transform="matrix(1,0,0,1,-154.307,-127.588)">
        <text x="205.855px" y="132.965px" style="font-family:'LucidaGrande', 'Lucida Grande', sans-serif;font-weight:500;font-size:6.974px;">s<tspan x="209.764px 213.761px 218.443px 223.186px 226.394px 231.032px 237.896px " y="132.965px 132.965px 132.965px 132.965px 132.965px 132.965px 132.965px ">yndrome</tspan></text>
        <text x="221.273px" y="148.528px" style="font-family:'LucidaGrande', 'Lucida Grande', sans-serif;font-weight:500;font-size:9.963px;">0</text>
        <text x="221.273px" y="163.47px" style="font-family:'LucidaGrande', 'Lucida Grande', sans-serif;font-weight:500;font-size:9.963px;">1</text>
        <text x="221.273px" y="178.413px" style="font-family:'LucidaGrande', 'Lucida Grande', sans-serif;font-weight:500;font-size:9.963px;">2</text>
        <text x="221.273px" y="193.355px" style="font-family:'LucidaGrande', 'Lucida Grande', sans-serif;font-weight:500;font-size:9.963px;">3</text>
        <text x="221.273px" y="208.298px" style="font-family:'LucidaGrande', 'Lucida Grande', sans-serif;font-weight:500;font-size:9.963px;">4</text>
    </g>
    <g transform="matrix(1,0,0,1,-154.307,-127.588)">
        <text x="240.707px" y="217.586px" style="font-family:'Monaco';font-size:6.974px;">0</text>
    </g>
    <g transform="matrix(1,0,0,1,-154.307,-127.588)">
        <text x="263.621px" y="217.586px" style="font-family:'Monaco';font-size:6.974px;">1</text>
    </g>
    <g transform="matrix(1,0,0,1,-154.307,-127.588)">
        <text x="287.393px" y="230.538px" style="font-family:'Monaco';font-size:6.974px;">=<tspan x="293.509px 299.625px " y="230.538px 230.538px ">=1</tspan></text>
    </g>
    <g transform="matrix(1,0,0,1,-154.307,-127.588)">
        <text x="290.977px" y="148.717px" style="font-family:'LucidaGrande', 'Lucida Grande', sans-serif;font-weight:500;font-size:9.963px;">X</text>
    </g>
    <g transform="matrix(1,0,0,1,-154.307,-127.588)">
        <text x="311.304px" y="230.538px" style="font-family:'Monaco';font-size:6.974px;">=<tspan x="317.42px 323.536px " y="230.538px 230.538px ">=3</tspan></text>
    </g>
    <g transform="matrix(1,0,0,1,-154.307,-127.588)">
        <text x="314.887px" y="163.661px" style="font-family:'LucidaGrande', 'Lucida Grande', sans-serif;font-weight:500;font-size:9.963px;">X</text>
    </g>
    <g transform="matrix(1,0,0,1,-154.307,-127.588)">
        <text x="335.214px" y="230.538px" style="font-family:'Monaco';font-size:6.974px;">=<tspan x="341.33px 347.446px " y="230.538px 230.538px ">=2</tspan></text>
    </g>
    <g transform="matrix(1,0,0,1,-154.307,-127.588)">
        <text x="338.798px" y="178.605px" style="font-family:'LucidaGrande', 'Lucida Grande', sans-serif;font-weight:500;font-size:9.963px;">X</text>
    </g>
    <g transform="matrix(1,0,0,1,-154.307,-127.588)">
        <text x="382.701px" y="147.804px" style="font-family:'LucidaGrande', 'Lucida Grande', sans-serif;font-weight:500;font-size:9.963px;">c<tspan x="386.943px 389.322px 394.761px " y="147.804px 147.804px 147.804px ">[0]</tspan></text>
        <text x="382.701px" y="162.747px" style="font-family:'LucidaGrande', 'Lucida Grande', sans-serif;font-weight:500;font-size:9.963px;">c<tspan x="386.943px 389.322px 394.761px " y="162.747px 162.747px 162.747px ">[1]</tspan></text>
        <text x="382.701px" y="177.689px" style="font-family:'LucidaGrande', 'Lucida Grande', sans-serif;font-weight:500;font-size:9.963px;">c<tspan x="386.943px 389.322px 394.761px " y="177.689px 177.689px 177.689px ">[2]</tspan></text>
    </g>
    <g transform="matrix(0,-1,-1,0,189.01,247.864)">
        <ellipse cx="155.419" cy="0" rx="1.494" ry="1.494" style="stroke:black;stroke-width:0.4px;"/>
    </g>
    <g transform="matrix(0,-1,-1,0,287.642,197.054)">
        <rect x="173.352" y="68.743" width="11.955" height="11.955" style="fill:white;stroke:black;stroke-width:0.4px;"/>
    </g>
    <g transform="matrix(-0.866026,0.499998,0.499998,0.866026,326.483,-133.683)">
        <path d="M173.753,73.824C175.602,72.756 177.881,72.756 179.73,73.824" style="fill:none;fill-rule:nonzero;stroke:black;stroke-width:0.2px;"/>
    </g>
    <g transform="matrix(0.866026,0.499999,0.499999,-0.866026,21.0516,-8.40467)">
        <path d="M178.929,73.824C180.779,74.892 183.058,74.892 184.907,73.824" style="fill:none;fill-rule:nonzero;stroke:black;stroke-width:0.2px;"/>
    </g>
    <g transform="matrix(0.173646,-0.984808,-0.984808,-0.173646,254.723,209.063)">
        <path d="M175.875,73.458L184.236,73.458" style="fill:none;fill-rule:nonzero;stroke:black;stroke-width:0.4px;"/>
    </g>
    <g transform="matrix(0.17363,-0.9848,0.9848,0.17363,214.373,14.8697)">
        <path d="M1.993,0L-1.196,-1.594L0,0L-1.196,1.594" style="fill-rule:nonzero;"/>
    </g>
    <g transform="matrix(0,-1,-1,0,272.698,211.998)">
        <rect x="173.352" y="53.799" width="11.955" height="11.955" style="fill:white;stroke:black;stroke-width:0.4px;"/>
    </g>
    <g transform="matrix(-0.866026,0.499998,0.499998,0.866026,333.956,-105.797)">
        <path d="M173.753,58.88C175.602,57.812 177.881,57.812 179.73,58.88" style="fill:none;fill-rule:nonzero;stroke:black;stroke-width:0.2px;"/>
    </g>
    <g transform="matrix(0.866026,0.499999,0.499999,-0.866026,28.5237,-6.40254)">
        <path d="M178.929,58.88C180.779,59.948 183.058,59.948 184.907,58.88" style="fill:none;fill-rule:nonzero;stroke:black;stroke-width:0.2px;"/>
    </g>
    <g transform="matrix(0.173646,-0.984808,-0.984808,-0.173646,240.006,221.412)">
        <path d="M175.875,58.514L184.236,58.514" style="fill:none;fill-rule:nonzero;stroke:black;stroke-width:0.4px;"/>
    </g>
    <g transform="matrix(0.17363,-0.9848,0.9848,0.17363,214.373,29.8139)">
        <path d="M1.993,0L-1.196,-1.594L0,0L-1.196,1.594" style="fill-rule:nonzero;"/>
    </g>
    <g transform="matrix(0,-1,-1,0,257.754,226.942)">
        <rect x="173.352" y="38.855" width="11.955" height="11.955" style="fill:white;stroke:black;stroke-width:0.4px;"/>
    </g>
    <g transform="matrix(-0.866026,0.499998,0.499998,0.866026,341.428,-77.911)">
        <path d="M173.753,43.936C175.602,42.868 177.881,42.868 179.73,43.936" style="fill:none;fill-rule:nonzero;stroke:black;stroke-width:0.2px;"/>
    </g>
    <g transform="matrix(0.866026,0.499999,0.499999,-0.866026,35.9957,-4.40041)">
        <path d="M178.929,43.936C180.779,45.003 183.058,45.003 184.907,43.936" style="fill:none;fill-rule:nonzero;stroke:black;stroke-width:0.2px;"/>
    </g>
    <g transform="matrix(0.173646,-0.984808,-0.984808,-0.173646,225.289,233.761)">
        <path d="M175.875,43.57L184.236,43.57" style="fill:none;fill-rule:nonzero;stroke:black;stroke-width:0.4px;"/>
    </g>
    <g transform="matrix(0.17363,-0.9848,0.9848,0.17363,214.373,44.7581)">
        <path d="M1.993,0L-1.196,-1.594L0,0L-1.196,1.594" style="fill-rule:nonzero;"/>
    </g>
</svg>
