<?xml version="1.0" encoding="UTF-8" standalone="no"?>
<!DOCTYPE svg PUBLIC "-//W3C//DTD SVG 1.1//EN" "http://www.w3.org/Graphics/SVG/1.1/DTD/svg11.dtd">
<svg width="100%" height="100%" viewBox="0 0 61 19" version="1.1" xmlns="http://www.w3.org/2000/svg" xmlns:xlink="http://www.w3.org/1999/xlink" xml:space="preserve" xmlns:serif="http://www.serif.com/" style="fill-rule:evenodd;clip-rule:evenodd;stroke-miterlimit:10;">
    <g transform="matrix(1,0,0,1,-152.573,-123.629)">
        <text x="152.033px" y="135.595px" style="font-family:'LucidaGrande', 'Lucida Grande', sans-serif;font-weight:500;font-size:9.963px;">q<tspan x="157.218px 159.373px 164.587px " y="135.595px 135.595px 135.595px ">[0]</tspan></text>
    </g>
    <g transform="matrix(1,0,0,1,-152.573,-123.629)">
        <text x="198.304px" y="135.595px" style="font-family:'LucidaGrande', 'Lucida Grande', sans-serif;font-weight:500;font-size:9.963px;">c<tspan x="202.546px 204.925px 210.364px " y="135.595px 135.595px 135.595px ">[0]</tspan></text>
    </g>
    <g transform="matrix(0,-1,-1,0,30.2564,21.4298)">
        <rect x="4.483" y="-11.955" width="14.944" height="23.911" style="fill:white;stroke:white;stroke-width:0.4px;"/>
    </g>
    <g transform="matrix(1,0,0,1,18.301,9.47452)">
        <path d="M0,0L11.955,0" style="fill:none;fill-rule:nonzero;stroke:black;stroke-width:0.4px;"/>
    </g>
    <g transform="matrix(1,0,0,1,18.301,10.4708)">
        <path d="M11.955,-0.498L23.911,-0.498" style="fill:none;fill-rule:nonzero;stroke:black;stroke-width:0.4px;"/>
    </g>
    <g transform="matrix(1,0,0,1,18.301,8.47824)">
        <path d="M11.955,0.498L23.911,0.498" style="fill:none;fill-rule:nonzero;stroke:black;stroke-width:0.4px;"/>
    </g>
    <g transform="matrix(0,-1,-1,0,30.2564,21.4298)">
        <rect x="5.978" y="-5.978" width="11.955" height="11.955" style="fill:white;stroke:black;stroke-width:0.4px;"/>
    </g>
    <g transform="matrix(-0.866028,0.499996,0.499996,0.866028,36.2283,6.46427)">
        <path d="M6.378,-0.897C8.227,-1.964 10.506,-1.964 12.356,-0.897" style="fill:none;fill-rule:nonzero;stroke:black;stroke-width:0.2px;"/>
    </g>
    <g transform="matrix(0.866027,0.499996,0.499996,-0.866027,20.6978,2.32283)">
        <path d="M11.555,-0.897C13.404,0.171 15.683,0.171 17.533,-0.897" style="fill:none;fill-rule:nonzero;stroke:black;stroke-width:0.2px;"/>
    </g>
    <g transform="matrix(0.173647,-0.984808,-0.984808,-0.173647,27.5366,23.0067)">
        <path d="M8.501,-1.263L16.862,-1.263" style="fill:none;fill-rule:nonzero;stroke:black;stroke-width:0.4px;"/>
    </g>
    <g transform="matrix(0.17363,-0.9848,0.9848,0.17363,31.7082,6.62026)">
        <path d="M1.993,0L-1.196,-1.594L0,0L-1.196,1.594" style="fill-rule:nonzero;"/>
    </g>
</svg>
